# xmcd CD database file
#
# Track frame offsets:
#	150
#	32012
#	43875
#	60103
#	80328
#	92855
#	106229
#	127375
#	152045
#	163994
#	177903
#	195426
#
# Disc length: 2813 seconds
#
# Revision: 0
# Processed by: cddbd v1.4PL0 Copyright (c) Steve Scherf et al.
# Submitted via: CDex 1.50beta9
#
DISCID=9b0afb0c
DTITLE=Chet Baker - The Best of Chet Baker
DYEAR=2001
DGENRE=Jazz
TTITLE0=Autumn leaves
TTITLE1=I'm thru with love
TTITLE2=I married an angel
TTITLE3=It's you or no one
TTITLE4=I love you
TTITLE5=Love walked in
TTITLE6=She was too good to me
TTITLE7=Tangerine
TTITLE8=What a difference a day makes
TTITLE9=You better go now
TTITLE10=What'll i do
TTITLE11=You don't know what love is
EXTD=YEAR: 2001
EXTT0=
EXTT1=
EXTT2=
EXTT3=
EXTT4=
EXTT5=
EXTT6=
EXTT7=
EXTT8=
EXTT9=
EXTT10=
EXTT11=
PLAYORDER=
